<svg width="116" height="116" xmlns="http://www.w3.org/2000/svg">
	<title>FileFlux</title>
	<defs>
		<filter id="f1">
			<feDropShadow dx="0" dy="2" stDeviation="1" flood-opacity="0.7" />
		</filter>
	</defs>
	<g>
		<polygon id="svg_1" stroke-width="5" stroke-linejoin="round" stroke="#50e6ff" fill="#50e6ff" points="4.5,5 64,5 83.5,22 4.5,22"/>
		<polygon id="svg_2" fill="#35c1f1" points="2,22, 86,22 86,44 2,44"/>
		<polygon id="svg_3" stroke-width="2" stroke-linejoin="round" stroke="#106bb2" fill="#106bb2" points="65.28813607990742,4.288136005401611 84.55931527912617,21.05931854248047 65.28813607990742,21.05931854248047 "/>
		<polygon id="svg_4" fill="#1b9de2" points="2,44, 86,44 86,66 2,66"/>
		<polygon id="svg_5" stroke-width="5" stroke-linejoin="round" stroke="#184f85" fill="#184f85" points="4.5,88, 83.5,88 83.5,110 4.5,110"/>
		<polygon id="svg_6" fill="#0078d4" points="2,66, 86,66 86,88 2,88"/>
	</g>
	<g id="svg_9">
		<path id="svg_12" fill="#50e6ff" filter="url(#f1)" d="m62.151,54.41665l-11.0677,0l0,-25.08315l-14.1666,0l0,25.08315l-11.0677,0l18.151,21.4999l18.151,-21.4999z"/>
		<path id="svg_13" fill="#50e6ff" filter="url(#f1)" d="m66.1354,65.1666l0,16.12492l-44.2708,0l0,-16.12492l-5.3125,0l0,21.4999l54.8958,0l0,-21.4999l-5.3125,0z"/>
	</g>
</svg>